SplineFontDB: 3.2
FontName: Seiso
FullName: spe seiso tekkimyo
FamilyName: Seiso
Weight: Regular
Copyright: Copyright (c) 2025, ongki
Version: 001.000
ItalicAngle: 0
UnderlinePosition: -100
UnderlineWidth: 50
Ascent: 800
Descent: 200
InvalidEm: 0
sfntRevision: 0x00010000
LayerCount: 2
Layer: 0 0 "Arri+AOgA-re" 1
Layer: 1 0 "Avant" 0
XUID: [1021 35 -1473419520 29346]
StyleMap: 0x0000
FSType: 0
OS2Version: 4
OS2_WeightWidthSlopeOnly: 0
OS2_UseTypoMetrics: 1
CreationTime: 1741903524
ModificationTime: 1742569966
PfmFamily: 17
TTFWeight: 400
TTFWidth: 5
LineGap: 90
VLineGap: 0
Panose: 2 0 5 9 0 0 0 0 0 0
OS2TypoAscent: 800
OS2TypoAOffset: 0
OS2TypoDescent: -200
OS2TypoDOffset: 0
OS2TypoLinegap: 90
OS2WinAscent: 865
OS2WinAOffset: 0
OS2WinDescent: 160
OS2WinDOffset: 0
HheadAscent: 865
HheadAOffset: 0
HheadDescent: -160
HheadDOffset: 0
OS2SubXSize: 650
OS2SubYSize: 700
OS2SubXOff: 0
OS2SubYOff: 140
OS2SupXSize: 650
OS2SupYSize: 700
OS2SupXOff: 0
OS2SupYOff: 480
OS2StrikeYSize: 49
OS2StrikeYPos: 258
OS2XHeight: 865
OS2Vendor: 'PfEd'
OS2CodePages: 00000001.00000000
OS2UnicodeRanges: 00000001.00000000.00000000.00000000
Lookup: 1 0 0 "'ccmp' Composition et d+AOkA-composition de glyphe (CJC) dans Latin lookup 0" { "sous-table 'ccmp' Composition et d+AOkA-composition de glyphe (CJC) dans Latin lookup 0"  } ['ccmp' ('latn' <'dflt' > ) ]
DEI: 91125
LangName: 1033 "" "" "" "FontForge 2.0 : spe seiso tekkimyo : 13-3-2025" "" "Version 001.000"
Encoding: UnicodeBmp
UnicodeInterp: none
NameList: AGL For New Fonts
DisplaySize: -48
AntiAlias: 1
FitToEm: 0
WinInfo: 62 31 12
BeginPrivate: 7
BlueValues 23 [-12 0 539 865 700 730]
BlueScale 10 0.00416667
BlueShift 1 0
StdHW 5 [105]
StdVW 5 [121]
StemSnapH 13 [105 106 114]
StemSnapV 21 [121 123 124 261 265]
EndPrivate
BeginChars: 65537 75

StartChar: .notdef
Encoding: 65536 -1 0
Width: 1000
GlyphClass: 1
Flags: MW
HStem: 0 50<100 900 100 950> 483 50<100 900 100 100>
VStem: 50 50<50 50 50 483> 900 50<50 483 483 483>
LayerCount: 2
Fore
SplineSet
50 0 m 1
 50 533 l 1
 950 533 l 1
 950 0 l 1
 50 0 l 1
100 50 m 1
 900 50 l 1
 900 483 l 1
 100 483 l 1
 100 50 l 1
EndSplineSet
EndChar

StartChar: b
Encoding: 98 98 1
Width: 1000
GlyphClass: 1
Flags: MW
HStem: -11 105 0 21G<76 197 76 76> 434 105
VStem: 76 121<0 82 440 730> 499 123<250.999 276.999>
LayerCount: 2
Fore
SplineSet
622 264 m 0x78
 622 220 615.166992188 180.999023438 601.5 146.999023438 c 0
 587.833007812 112.999023438 569.5 84.166015625 546.5 60.4990234375 c 0
 523.5 36.83203125 497.166992188 18.9990234375 467.5 6.9990234375 c 0
 437.833007812 -5.0009765625 407.333007812 -11.0009765625 376 -11.0009765625 c 0xb8
 332.666992188 -11.0009765625 296.666992188 -1.66796875 268 16.9990234375 c 0
 239.333007812 35.666015625 215.666992188 57.3330078125 197 82 c 1
 197 0 l 1
 76 0 l 1
 76 730 l 1
 197 730 l 5
 197 440 l 1
 216.333007812 468 240.333007812 491.5 269 510.5 c 0
 297.666992188 529.5 333.333007812 539 376 539 c 0
 407.333007812 539 437.666992188 533 467 521 c 0
 496.333007812 509 522.5 491.166992188 545.5 467.5 c 0
 568.5 443.833007812 587 415 601 381 c 0
 615 347 622 308 622 264 c 0x78
499 263.999023438 m 0
 499 289.999023438 495 313.499023438 487 334.499023438 c 0
 479 355.499023438 468.166992188 373.33203125 454.5 387.999023438 c 0
 440.833007812 402.666015625 424.833007812 413.999023438 406.5 421.999023438 c 0
 388.166992188 429.999023438 368.666992188 433.999023438 348 433.999023438 c 0
 327.333007812 433.999023438 307.666992188 429.999023438 289 421.999023438 c 0
 270.333007812 413.999023438 254 402.499023438 240 387.499023438 c 0
 226 372.499023438 214.833007812 354.666015625 206.5 333.999023438 c 0
 198.166992188 313.33203125 194 289.999023438 194 263.999023438 c 0
 194 237.999023438 198.166992188 214.666015625 206.5 193.999023438 c 0
 214.833007812 173.33203125 226 155.499023438 240 140.499023438 c 0
 254 125.499023438 270.333007812 113.999023438 289 105.999023438 c 0
 307.666992188 97.9990234375 327.333007812 93.9990234375 348 93.9990234375 c 0
 368.666992188 93.9990234375 388.166992188 97.9990234375 406.5 105.999023438 c 0
 424.833007812 113.999023438 440.833007812 125.33203125 454.5 139.999023438 c 0
 468.166992188 154.666015625 479 172.499023438 487 193.499023438 c 0
 495 214.499023438 499 237.999023438 499 263.999023438 c 0
EndSplineSet
Substitution2: "sous-table 'ccmp' Composition et d+AOkA-composition de glyphe (CJC) dans Latin lookup 0" p
EndChar

StartChar: c
Encoding: 99 99 2
Width: 1000
GlyphClass: 1
Flags: MW
HStem: -12 105<314.333 340.333 314.333 345.667> 433 106<309 335.333>
VStem: 47 121<252 275.667 252 281>
LayerCount: 2
Fore
SplineSet
536 87 m 1
 510 57.6669921875 480.333007812 33.8330078125 447 15.5 c 0
 413.666992188 -2.8330078125 371.333007812 -12 320 -12 c 0
 280.666992188 -12 244.333007812 -4.8330078125 211 9.5 c 0
 177.666992188 23.8330078125 148.833007812 43.5 124.5 68.5 c 0
 100.166992188 93.5 81.1669921875 122.5 67.5 155.5 c 0
 53.8330078125 188.5 47 224 47 262 c 0
 47 300 53.8330078125 335.666992188 67.5 369 c 0
 81.1669921875 402.333007812 100.166992188 431.666992188 124.5 457 c 0
 148.833007812 482.333007812 177.833007812 502.333007812 211.5 517 c 0
 245.166992188 531.666992188 281.666992188 539 321 539 c 0
 371 539 412.5 530.666992188 445.5 514 c 0
 478.5 497.333007812 507.333007812 475.333007812 532 448 c 1
 457 367 l 1
 438.333007812 386.333007812 418.5 402.166992188 397.5 414.5 c 0
 376.5 426.833007812 350.666992188 433 320 433 c 0
 298 433 277.666992188 428.5 259 419.5 c 0
 240.333007812 410.5 224.333007812 398.333007812 211 383 c 0
 197.666992188 367.666992188 187.166992188 349.833007812 179.5 329.5 c 0
 171.833007812 309.166992188 168 287.333007812 168 264 c 0
 168 240 171.833007812 217.666992188 179.5 197 c 0
 187.166992188 176.333007812 198 158.333007812 212 143 c 0
 226 127.666992188 242.666992188 115.5 262 106.5 c 0
 281.333007812 97.5 302.666992188 93 326 93 c 0
 354.666992188 93 379.833007812 99.1669921875 401.5 111.5 c 0
 423.166992188 123.833007812 443.666992188 139.666992188 463 159 c 1
 536 87 l 1
EndSplineSet
Substitution2: "sous-table 'ccmp' Composition et d+AOkA-composition de glyphe (CJC) dans Latin lookup 0" p
EndChar

StartChar: p
Encoding: 112 112 3
Width: 1000
GlyphClass: 1
Flags: MW
HStem: -160 21G<76 197 76 76> -11 105 434 105
VStem: 76 121<-160 82 440 528> 499 123<250.999 276.999>
LayerCount: 2
Fore
SplineSet
622 264 m 0
 622 220 615.166992188 180.999023438 601.5 146.999023438 c 0
 587.833007812 112.999023438 569.5 84.166015625 546.5 60.4990234375 c 0
 523.5 36.83203125 497.166992188 18.9990234375 467.5 6.9990234375 c 0
 437.833007812 -5.0009765625 407.333007812 -11.0009765625 376 -11.0009765625 c 0
 332.666992188 -11.0009765625 296.666992188 -1.66796875 268 16.9990234375 c 0
 239.333007812 35.666015625 215.666992188 57.3330078125 197 82 c 1
 197 -160 l 1
 76 -160 l 1
 76 528 l 1
 197 528 l 1
 197 440 l 1
 216.333007812 468 240.333007812 491.5 269 510.5 c 0
 297.666992188 529.5 333.333007812 539 376 539 c 0
 407.333007812 539 437.666992188 533 467 521 c 0
 496.333007812 509 522.5 491.166992188 545.5 467.5 c 0
 568.5 443.833007812 587 415 601 381 c 0
 615 347 622 308 622 264 c 0
499 263.999023438 m 0
 499 289.999023438 495 313.499023438 487 334.499023438 c 0
 479 355.499023438 468.166992188 373.33203125 454.5 387.999023438 c 0
 440.833007812 402.666015625 424.833007812 413.999023438 406.5 421.999023438 c 0
 388.166992188 429.999023438 368.666992188 433.999023438 348 433.999023438 c 0
 327.333007812 433.999023438 307.666992188 429.999023438 289 421.999023438 c 0
 270.333007812 413.999023438 254 402.499023438 240 387.499023438 c 0
 226 372.499023438 214.833007812 354.666015625 206.5 333.999023438 c 0
 198.166992188 313.33203125 194 289.999023438 194 263.999023438 c 0
 194 237.999023438 198.166992188 214.666015625 206.5 193.999023438 c 0
 214.833007812 173.33203125 226 155.499023438 240 140.499023438 c 0
 254 125.499023438 270.333007812 113.999023438 289 105.999023438 c 0
 307.666992188 97.9990234375 327.333007812 93.9990234375 348 93.9990234375 c 0
 368.666992188 93.9990234375 388.166992188 97.9990234375 406.5 105.999023438 c 0
 424.833007812 113.999023438 440.833007812 125.33203125 454.5 139.999023438 c 0
 468.166992188 154.666015625 479 172.499023438 487 193.499023438 c 0
 495 214.499023438 499 237.999023438 499 263.999023438 c 0
EndSplineSet
EndChar

StartChar: t
Encoding: 116 116 4
Width: 1000
GlyphClass: 1
Flags: MW
HStem: 0 21G<262 386 262 262> 586 114<40 262 40 608 386 608 386 386>
VStem: 262 124<0 586 0 586>
LayerCount: 2
Fore
SplineSet
386 586 m 1
 386 0 l 1
 262 0 l 1
 262 586 l 1
 40 586 l 1
 40 700 l 1
 608 700 l 1
 608 586 l 1
 386 586 l 1
EndSplineSet
EndChar

StartChar: y
Encoding: 121 121 5
Width: 1000
GlyphClass: 1
Flags: MW
HStem: 845 20G<4 265 265 265 1412 1673 1673 1673>
VStem: 0 265<140 140> 1412 261<137 865 137 865>
LayerCount: 2
Fore
SplineSet
978 837 m 1
 1064 801 1139 727 1175 641 c 0
 1193 598 1204 550 1204 502 c 0
 1204 453 1193 405 1175 362 c 0
 1139 276 1064 201 978 165 c 0
 935 147 887 139 839 139 c 0
 791 139 743 147 700 165 c 0
 614 201 539 276 503 362 c 0
 485 405 474 453 474 502 c 0
 474 550 485 598 503 641 c 0
 539 726 612 801 697 837 c 0
 698 837 800 595 806 584 c 1
 786 574 768 557 758 535 c 0
 748 513 751 487 758 467 c 0
 765 447 786 426 806 419 c 0
 826 412 855 412 875 419 c 0
 895 426 916 447 923 467 c 0
 930 487 930 515 923 535 c 0
 916 555 895 576 875 583 c 1
 880 597 978 837 978 837 c 1
4 865 m 1
 265 865 l 1
 265 137 l 1
 0 140 l 1
 4 865 l 1
1412 865 m 1
 1673 865 l 1
 1673 137 l 1
 1412 137 l 1
 1412 865 l 1
EndSplineSet
EndChar

StartChar: a
Encoding: 97 97 6
Width: 1000
Flags: HW
HStem: -12 105<314.333 340.333 314.333 345.667> 433 106<309 335.333>
VStem: 47 121<252 275.667 252 281>
LayerCount: 2
Fore
SplineSet
0 320 m 0
 80 320 l 0
 81 151 176 80 275 80 c 0
 384 80 466 149 470 320 c 0
 550 320 l 4
 548 97 433 0 275 0 c 0
 114 0 0 96 0 320 c 0
EndSplineSet
EndChar

StartChar: uni0087
Encoding: 135 135 7
Width: 1000
Flags: HW
HStem: -12 105<314.333 340.333 314.333 345.667> 433 106<309 335.333>
VStem: 47 121<252 275.667 252 281>
LayerCount: 2
Fore
SplineSet
0 80 m 0
 151 80 122 320 315 320 c 0
 502 320 458 80 630 80 c 0
 630 0 l 0
 389 0 450 240 315 240 c 0
 171.987304688 240 226 0 0 0 c 0
 0 80 l 0
EndSplineSet
EndChar

StartChar: uni0088
Encoding: 136 136 8
Width: 1000
Flags: HW
HStem: -12 105<314.333 340.333 314.333 345.667> 433 106<309 335.333>
VStem: 47 121<252 275.667 252 281>
LayerCount: 2
Fore
SplineSet
0 0 m 0
 80 0 l 0
 81 169 176 240 275 240 c 0
 384 240 466 171 470 0 c 0
 550 0 l 0
 548 223 433 320 275 320 c 4
 114 320 0 224 0 0 c 0
EndSplineSet
EndChar

StartChar: Odieresis
Encoding: 214 214 9
Width: 1000
Flags: HW
LayerCount: 2
Fore
SplineSet
0 320 m 1
 80 320 l 25
 80 730 l 1
 0 730 l 1
 0 320 l 1
EndSplineSet
EndChar

StartChar: multiply
Encoding: 215 215 10
Width: 1000
Flags: HW
LayerCount: 2
Fore
SplineSet
550 0 m 1
 550 80 l 1
 0 80 l 1
 0 0 l 1
 550 0 l 1
EndSplineSet
EndChar

StartChar: Oslash
Encoding: 216 216 11
Width: 1000
Flags: HW
LayerCount: 2
Fore
SplineSet
360 240 m 5
 360 320 l 5
 0 320 l 1
 0 240 l 1
 360 240 l 5
EndSplineSet
EndChar

StartChar: Ugrave
Encoding: 217 217 12
Width: 1000
Flags: HW
LayerCount: 2
Fore
SplineSet
320 240 m 5
 320 320 l 5
 0 320 l 1
 0 240 l 1
 320 240 l 5
EndSplineSet
EndChar

StartChar: Uacute
Encoding: 218 218 13
Width: 1000
Flags: HW
LayerCount: 2
Fore
SplineSet
50 240 m 1
 50 320 l 1
 0 320 l 1
 0 240 l 1
 50 240 l 1
EndSplineSet
EndChar

StartChar: Ucircumflex
Encoding: 219 219 14
Width: 1000
Flags: HW
LayerCount: 2
Fore
SplineSet
360 0 m 5
 360 80 l 5
 0 80 l 1
 0 0 l 1
 360 0 l 5
360 240 m 5
 360 320 l 5
 0 320 l 1
 0 240 l 1
 360 240 l 5
EndSplineSet
EndChar

StartChar: Ocircumflex
Encoding: 212 212 15
Width: 1000
Flags: HW
LayerCount: 2
Fore
SplineSet
0 -240 m 5
 80 -240 l 5
 80 320 l 1
 0 320 l 1
 0 -240 l 5
EndSplineSet
EndChar

StartChar: uni0089
Encoding: 137 137 16
Width: 1000
Flags: HW
HStem: -12 105<314.333 340.333 314.333 345.667> 433 106<309 335.333>
VStem: 47 121<252 275.667 252 281>
LayerCount: 2
Fore
SplineSet
0 0 m 0
 109 0 191 -69 195 -240 c 0
 275 -240 l 4
 273 -17 158 80 0 80 c 0
 0 0 l 0
EndSplineSet
EndChar

StartChar: Oacute
Encoding: 211 211 17
Width: 1000
Flags: HW
LayerCount: 2
Fore
SplineSet
0 0 m 1
 80 0 l 1
 80 320 l 1
 0 320 l 1
 0 0 l 1
EndSplineSet
EndChar

StartChar: Ntilde
Encoding: 209 209 18
Width: 1000
Flags: HW
LayerCount: 2
Fore
SplineSet
185 520 m 1
 380 730 l 1
 280 730 l 1
 0 440 l 1
 200 440 l 1
 200 320 l 1
 280 320 l 1
 280 520 l 1
 185 520 l 1
EndSplineSet
EndChar

StartChar: Eth
Encoding: 208 208 19
Width: 1000
Flags: HW
LayerCount: 2
Fore
SplineSet
0 240 m 1
 320 240 l 5
 320 320 l 5
 200 320 l 1
 590 730 l 1
 480 730 l 1
 0 240 l 1
EndSplineSet
EndChar

StartChar: Idieresis
Encoding: 207 207 20
Width: 1000
Flags: H
LayerCount: 2
Fore
SplineSet
0 730 m 25
 550 730 l 1
 550 730 137 508 137 270 c 0
 137 77 300 80 300 80 c 1
 300 0 l 1
 300 0 50.8984375 1 50 275 c 0
 49.255859375 502.020507812 294 650 294 650 c 1
 0 650 l 1
 0 730 l 25
EndSplineSet
EndChar

StartChar: uni008A
Encoding: 138 138 21
Width: 1000
Flags: HW
HStem: -12 105<39.333 65.333 39.333 70.667> 433 106<34 60.333>
VStem: -228 121<252 275.667 252 281>
LayerCount: 2
Fore
SplineSet
275 120 m 5
 127 79 54 80 0 80 c 4
 0 0 l 0
 89 0 175 24 275 120 c 5
EndSplineSet
EndChar

StartChar: uni008B
Encoding: 139 139 22
Width: 1000
Flags: H
HStem: -12 105<314.333 340.333 314.333 345.667> 433 106<309 335.333>
VStem: 47 121<252 275.667 252 281>
LayerCount: 2
Fore
SplineSet
225 0 m 0
 62 0 0 90 0 320 c 0
 0 330 l 1
 80 330 l 5
 80 320 l 0
 80 154 122 80 225 80 c 0
 225 0 l 0
EndSplineSet
EndChar

StartChar: d
Encoding: 100 100 23
Width: 1000
Flags: HW
HStem: -12 105<39.333 65.333 39.333 70.667> 433 106<34 60.333>
VStem: -228 121<252 275.667 252 281>
LayerCount: 2
Fore
SplineSet
0 194 m 1
 86 395 180.251556376 329.802700156 180 219 c 4
 179.848789273 152.396413356 104 80 0 80 c 0
 0 0 l 0
 129.617997123 0 260 86.953125 260 228 c 4
 260 326 216.031719192 400 115 400 c 0
 28 400 -37 316 0 194 c 1
EndSplineSet
EndChar

StartChar: uni008C
Encoding: 140 140 24
Width: 1000
Flags: HW
LayerCount: 2
Fore
SplineSet
150 320 m 5
 0 320 l 0
 0 240 l 0
 150 240 l 5
 150 320 l 5
EndSplineSet
EndChar

StartChar: e
Encoding: 101 101 25
Width: 1000
Flags: HW
HStem: -12 105<194.667 220.667 189.333 220.667> 433 106<199.667 226>
VStem: 367 121<252 275.667 252 281>
LayerCount: 2
Fore
SplineSet
0 126 m 1
 86 -75 180.251953125 -9.802734375 180 101 c 0
 179.848632812 167.603515625 104 240 0 240 c 0
 0 320 l 0
 129.618164062 320 260 233.046875 260 92 c 0
 260 -6 216.03125 -80 115 -80 c 0
 28 -80 -37 4 0 126 c 1
EndSplineSet
EndChar

StartChar: f
Encoding: 102 102 26
Width: 1000
Flags: H
LayerCount: 2
Fore
SplineSet
200 400 m 0
 310.3828125 400 400 310.3828125 400 200 c 0
 400 89.6171875 310.3828125 0 200 0 c 0
 89.6171875 0 0 89.6171875 0 200 c 0
 0 310.3828125 89.6171875 400 200 400 c 0
200 320 m 0
 266.229492188 320 320 266.229492188 320 200 c 0
 320 133.770507812 266.229492188 80 200 80 c 0
 133.770507812 80 80 133.770507812 80 200 c 0
 80 266.229492188 133.770507812 320 200 320 c 1024
EndSplineSet
EndChar

StartChar: uni0090
Encoding: 144 144 27
Width: 1000
Flags: HW
LayerCount: 2
Fore
SplineSet
275 320 m 5
 0 320 l 0
 0 240 l 0
 275 240 l 5
 275 320 l 5
EndSplineSet
EndChar

StartChar: uni008D
Encoding: 141 141 28
Width: 1000
Flags: HW
HStem: -12 105<39.333 65.333 39.333 70.667> 433 106<34 60.333>
VStem: -228 121<252 275.667 252 281>
LayerCount: 2
Fore
SplineSet
275 320 m 4
 186 320 100 296 0 200 c 1
 148 241 221 240 275 240 c 4
 275 320 l 4
EndSplineSet
EndChar

StartChar: Icircumflex
Encoding: 206 206 29
Width: 1000
Flags: HW
LayerCount: 2
Fore
SplineSet
0 730 m 25
 550 730 l 1
 550 730 189 477 153 285 c 1
 186 305 240 320 300 320 c 0
 300 240 l 0
 205 240 80 182 80 0 c 1
 0 0 l 1
 0 426 330 650 330 650 c 1
 0 650 l 1
 0 730 l 25
EndSplineSet
EndChar

StartChar: Udieresis
Encoding: 220 220 30
Width: 1000
Flags: HW
LayerCount: 2
Fore
SplineSet
0 0 m 1
 820 0 l 1
 820 80 l 1
 210 80 l 1
 830 730 l 1
 710 730 l 1
 0 0 l 1
EndSplineSet
EndChar

StartChar: Yacute
Encoding: 221 221 31
Width: 1000
Flags: HW
LayerCount: 2
Fore
SplineSet
80 0 m 1
 -30 0 l 1
 380 650 l 1
 0 650 l 1
 0 730 l 25
 550 730 l 1
 80 0 l 1
EndSplineSet
EndChar

StartChar: Iacute
Encoding: 205 205 32
Width: 1000
Flags: HW
LayerCount: 2
Fore
SplineSet
67 215 m 1
 67 409 325 650 325 650 c 1
 0 650 l 1
 0 730 l 25
 550 730 l 1
 550 730 209 454 193 313 c 1
 234 318 248 319 300 320 c 0
 300 240 l 0
 236 244 130 235 67 215 c 1
EndSplineSet
EndChar

StartChar: Thorn
Encoding: 222 222 33
Width: 1000
Flags: HW
LayerCount: 2
Fore
SplineSet
0 0 m 1
 450 0 l 1
 450 80 l 1
 210 80 l 1
 830 730 l 1
 710 730 l 1
 0 0 l 1
EndSplineSet
EndChar

StartChar: germandbls
Encoding: 223 223 34
Width: 1000
Flags: HW
LayerCount: 2
Fore
SplineSet
0 730 m 25
 0 650 l 1
 390 650 l 25
 0 260 l 25
 0 130 l 25
 600 730 l 1
 0 730 l 25
0 0 m 1
 450 0 l 1
 450 80 l 1
 210 80 l 1
 830 730 l 1
 710 730 l 1
 0 0 l 1
EndSplineSet
EndChar

StartChar: agrave
Encoding: 224 224 35
Width: 1000
Flags: HW
LayerCount: 2
Fore
SplineSet
0 730 m 1
 0 650 l 1
 170 650 l 1
 0 480 l 1
 0 360 l 1
 370 730 l 1
 0 730 l 1
0 240 m 1
 320 240 l 1
 320 320 l 1
 200 320 l 1
 590 730 l 1
 480 730 l 1
 0 240 l 1
EndSplineSet
EndChar

StartChar: aacute
Encoding: 225 225 36
Width: 1000
Flags: HW
LayerCount: 2
Fore
SplineSet
-30 730 m 1
 -30 650 l 1
 90 650 l 1
 -30 525 l 1
 -30 465 l 1
 230 730 l 1
 -30 730 l 1
185 520 m 1
 380 730 l 1
 280 730 l 1
 0 440 l 1
 200 440 l 1
 200 320 l 1
 280 320 l 1
 280 520 l 1
 185 520 l 1
EndSplineSet
EndChar

StartChar: Igrave
Encoding: 204 204 37
Width: 1000
Flags: HW
LayerCount: 2
Fore
SplineSet
270 320 m 16
 203.770507812 320 150 266.229492188 150 200 c 0
 150 133.770507812 203.770507812 80 270 80 c 0
 270 0 l 0
 159.6171875 0 70 89.6171875 70 200 c 1
 77 410 340 650 340 650 c 1
 0 650 l 1
 0 730 l 25
 550 730 l 1
 550 730 307 535 239 398 c 1
 254 400 267 400 270 400 c 0
 270 320 l 16
270 320 m 1024
EndSplineSet
EndChar

StartChar: Ograve
Encoding: 210 210 38
Width: 1000
Flags: HW
LayerCount: 2
Fore
SplineSet
550 730 m 1
 0 729 l 1
 0 650 l 1
 320 650 l 1
 170 530 l 1
 170 320 l 1
 250 320 l 1
 250 490 l 1
 550 730 l 1
EndSplineSet
EndChar

StartChar: uni008E
Encoding: 142 142 39
Width: 1000
Flags: HW
LayerCount: 2
Fore
SplineSet
200 400 m 0
 155.010307219 400 113.470209767 385.112750935 80.0414526745 359.999997837 c 1
 0 360 l 25
 0 200 l 0
 0 89.6171875 89.6171875 0 200 0 c 0
 200 80 l 0
 133.770507812 80 80 133.770507812 80 200 c 0
 80 266.229492188 133.770507812 320 200 320 c 0
 200 400 l 0
EndSplineSet
EndChar

StartChar: uni008F
Encoding: 143 143 40
Width: 1000
Flags: HW
LayerCount: 2
Fore
SplineSet
200 80 m 1
 0 80 l 0
 0 0 l 0
 200 0 l 1
 200 80 l 1
EndSplineSet
EndChar

StartChar: uni0085
Encoding: 133 133 41
Width: 1000
Flags: HW
LayerCount: 2
Fore
SplineSet
440 80 m 5
 0 80 l 0
 0 0 l 0
 440 0 l 5
 440 80 l 5
EndSplineSet
EndChar

StartChar: uni0083
Encoding: 131 131 42
Width: 1000
Flags: HW
LayerCount: 2
Fore
SplineSet
80 140 m 0
 80 49 268 40 440 40 c 0
 440 -40 l 0
 273 -40 0 -40 0 140 c 0
 0 320 273 320 440 320 c 0
 440 240 l 0
 268 240 80 231 80 140 c 0
EndSplineSet
EndChar

StartChar: uni0082
Encoding: 130 130 43
Width: 1000
Flags: HW
LayerCount: 2
Fore
SplineSet
380 280 m 1
 185 280 80 249 80 160 c 0
 80 69 278 80 440 80 c 0
 440 0 l 0
 171 0 0 -0.000663571090627 0 160 c 0
 0 264 58 391 380 280 c 1
EndSplineSet
EndChar

StartChar: uni0091
Encoding: 145 145 44
Width: 1000
Flags: HW
LayerCount: 2
Fore
SplineSet
150 320 m 5
 80 320 l 5
 80 330 l 5
 0 330 l 4
 0 240 l 4
 150 240 l 5
 150 320 l 5
EndSplineSet
EndChar

StartChar: macron
Encoding: 175 175 45
Width: 1000
Flags: HW
HStem: -12 105<314.333 340.333 314.333 345.667> 433 106<309 335.333>
VStem: 47 121<252 275.667 252 281>
LayerCount: 2
Fore
SplineSet
0 80 m 25
 0 0 l 25
 275 0 l 0
 275 80 l 0
 176 80 81 151 80 320 c 0
 0 320 l 0
 -3.5527136788e-15 210.833158076 27.0763617831 132.067845171 73.4737070305 80 c 1
 0 80 l 25
EndSplineSet
EndChar

StartChar: degree
Encoding: 176 176 46
Width: 1000
Flags: HW
HStem: -12 105<39.333 65.333 39.333 70.667> 433 106<34 60.333>
VStem: -228 121<252 275.667 252 281>
LayerCount: 2
Fore
SplineSet
275 0 m 25
 275 80 l 25
 199.318441388 79.9999958083 l 1
 246.074875048 132.180630758 274.022900693 211.053427244 275 320 c 0
 195 320 l 0
 191 149 109 80 0 80 c 0
 0 0 l 0
 275 0 l 25
EndSplineSet
EndChar

StartChar: uni00B2
Encoding: 178 178 47
Width: 1000
Flags: HW
LayerCount: 2
Fore
SplineSet
0 0 m 0
 110.3828125 0 200 89.6171875 200 200 c 0
 200 310.3828125 110.3828125 400 0 400 c 0
 0 320 l 0
 66.2294921875 320 120 266.229492188 120 200 c 0
 120 133.770507812 66.2294921875 80 0 80 c 0
 0 0 l 0
0 320 m 1024
EndSplineSet
EndChar

StartChar: uni00B3
Encoding: 179 179 48
Width: 1000
Flags: HW
LayerCount: 2
Fore
SplineSet
200 400 m 0
 89.6171875 400 0 310.3828125 0 200 c 0
 0 89.6171875 89.6171875 0 200 0 c 0
 200 80 l 0
 133.770507812 80 80 133.770507812 80 200 c 0
 80 266.229492188 133.770507812 320 200 320 c 0
 200 400 l 0
EndSplineSet
EndChar

StartChar: registered
Encoding: 174 174 49
Width: 1000
Flags: HW
HStem: -12 105<314.333 340.333 314.333 345.667> 433 106<309 335.333>
VStem: 47 121<252 275.667 252 281>
LayerCount: 2
Fore
SplineSet
0 320 m 25
 0 240 l 25
 73.4737070305 240 l 1
 27.0763617831 187.932154829 -3.5527136788e-15 109.166841924 0 0 c 0
 80 0 l 0
 81 169 176 240 275 240 c 0
 275 320 l 0
 0 320 l 25
EndSplineSet
EndChar

StartChar: uni00AD
Encoding: 173 173 50
Width: 1000
Flags: HW
HStem: -12 105<39.333 65.333 39.333 70.667> 433 106<34 60.333>
VStem: -228 121<252 275.667 252 281>
LayerCount: 2
Fore
SplineSet
275 240 m 25
 275 320 l 25
 0 320 l 0
 0 240 l 0
 109 240 191 171 195 0 c 0
 275 0 l 0
 274.022900693 108.946572756 246.074875048 187.819369242 199.318441388 240.000004192 c 1
 275 240 l 25
EndSplineSet
EndChar

StartChar: logicalnot
Encoding: 172 172 51
Width: 1000
Flags: HW
HStem: -12 105<39.333 65.333 39.333 70.667> 433 106<34 60.333>
VStem: -228 121<252 275.667 252 281>
LayerCount: 2
Fore
SplineSet
260 80 m 25
 260 0 l 25
 158 0 45.4584319497 0 0 0 c 0
 0 80 l 0
 104 80 179.848789273 152.396413356 180 219 c 0
 180.251556376 329.802700156 86 395 0 194 c 1
 -37 316 28 400 115 400 c 0
 216.031719192 400 260 326 260 228 c 0
 260 168.37037761 236.69683933 118.408925058 199.999997626 80.5985185722 c 1
 260 80 l 25
EndSplineSet
EndChar

StartChar: guillemotleft
Encoding: 171 171 52
Width: 1000
Flags: HW
HStem: -12 105<194.667 220.667 189.333 220.667> 433 106<199.667 226>
VStem: 367 121<252 275.667 252 281>
LayerCount: 2
Fore
SplineSet
260 240 m 25
 260 320 l 25
 0 320 l 0
 0 240 l 0
 104 240 179.848632812 167.603515625 180 101 c 0
 180.251953125 -9.802734375 86 -75 0 126 c 1
 -37 4 28 -80 115 -80 c 0
 216.03125 -80 260 -6 260 92 c 0
 260 152.169512316 236.272983179 202.49498994 198.999997609 240.425503892 c 1
 260 240 l 25
EndSplineSet
EndChar

StartChar: mu
Encoding: 181 181 53
Width: 1000
Flags: HW
LayerCount: 2
Fore
SplineSet
120 -240 m 25
 200 -240 l 25
 200 200 l 0
 200 310.3828125 110.3828125 400 0 400 c 0
 0 320 l 0
 66.2294921875 320 120 266.229492188 120 200 c 0
 120 133.770507812 66.2294921875 80 0 80 c 0
 0 0 l 0
 44.9896901975 0 86.5297854626 14.8872473551 119.958541567 39.9999978369 c 1
 120 -240 l 25
0 320 m 1024
EndSplineSet
EndChar

StartChar: copyright
Encoding: 169 169 54
Width: 1000
Flags: HW
LayerCount: 2
Fore
SplineSet
200 80 m 25
 200 0 l 25
 0 0 l 0
 0 80 l 0
 66.2294921875 80 120 133.770507812 120 200 c 0
 120 266.229492188 66.2294921875 320 0 320 c 0
 0 400 l 0
 110.3828125 400 200 310.3828125 200 200 c 0
 200 154.991707835 185.100439186 113.435863812 159.968846677 79.9999970508 c 1
 200 80 l 25
0 320 m 1024
EndSplineSet
EndChar

StartChar: ordfeminine
Encoding: 170 170 55
Width: 1000
Flags: HW
LayerCount: 2
Fore
SplineSet
0 80 m 25
 0 0 l 25
 200 0 l 0
 200 80 l 0
 133.770507812 80 80 133.770507812 80 200 c 0
 80 266.229492188 133.770507812 320 200 320 c 0
 200 400 l 0
 89.6171875 400 0 310.3828125 0 200 c 0
 0 154.991710481 14.8995590615 113.435868699 40.0311488892 80.0000029492 c 1
 0 80 l 25
EndSplineSet
EndChar

StartChar: paragraph
Encoding: 182 182 57
Width: 1000
Flags: HW
HStem: -12 105<-280.667 -254.667 -280.667 -249.333> 433 106<-286 -259.667>
VStem: -548 121<252 275.667 252 281>
LayerCount: 2
Fore
SplineSet
275 0 m 1
 278 302 127 320 0 320 c 0
 0 240 l 0
 82 240 198 236 195 0 c 1
 195 -240 l 1
 275 -240 l 1
 275 0 l 1
EndSplineSet
EndChar

StartChar: periodcentered
Encoding: 183 183 58
Width: 1000
Flags: HW
HStem: -12 105<39.333 65.333 39.333 70.667> 433 106<34 60.333>
VStem: -228 121<252 275.667 252 281>
LayerCount: 2
Fore
SplineSet
180 -240 m 25
 260 -240 l 25
 260 228 l 0
 260 326 216.031719192 400 115 400 c 0
 28 400 -37 316 0 194 c 1
 86 395 180.251556376 329.802700156 180 219 c 0
 179.848789273 152.396413356 104 80 0 80 c 0
 0 0 l 0
 65.427764185 0 131.050194402 22.1553564361 179.99999732 62.2398734632 c 1
 180 -240 l 25
EndSplineSet
EndChar

StartChar: cedilla
Encoding: 184 184 59
Width: 1000
Flags: HW
HStem: -12 105<194.667 220.667 189.333 220.667> 433 106<199.667 226>
VStem: 367 121<252 275.667 252 281>
LayerCount: 2
Fore
SplineSet
40 -240 m 25
 -40 -240 l 26
 -40 -240 -72 6 0 126 c 1
 86 -75 180.251953125 -9.802734375 180 101 c 0
 179.848632812 167.603515625 104 240 0 240 c 0
 0 320 l 0
 129.618164062 320 260 233.046875 260 92 c 0
 260 -6 216.03125 -80 115 -80 c 0
 86.7735020697 -80 60.8627887978 -71.1579131227 40.0000019132 -55.0447208623 c 1
 40 -240 l 25
EndSplineSet
EndChar

StartChar: uni00B9
Encoding: 185 185 60
Width: 1000
Flags: HW
HStem: -12 105<39.333 65.333 39.333 70.667> 433 106<34 60.333>
VStem: -228 121<252 275.667 252 281>
LayerCount: 2
Fore
SplineSet
40 226 m 1
 40.0000042608 83.6784470145 l 1
 122.887073447 99.2097680989 180 161.280016774 180 219 c 0
 180 352 41 350 40 226 c 1
115 400 m 1
 -104 400 -40 248 -40 -239 c 1
 40 -240 l 25
 39.999996339 2.74072810889 l 1
 155.134169111 18.518429739 260 101.505499194 260 228 c 0
 260 326 216.031719192 400 115 400 c 1
EndSplineSet
EndChar

StartChar: i
Encoding: 105 105 61
Width: 1000
Flags: HW
LayerCount: 2
Fore
SplineSet
180 300 m 0
 235.19140625 300 280 255.19140625 280 200 c 0
 280 144.80859375 235.19140625 100 180 100 c 0
 124.80859375 100 80 144.80859375 80 200 c 0
 80 255.19140625 124.80859375 300 180 300 c 0
180 254 m 0
 209.803710938 254 234 229.803710938 234 200 c 0
 234 170.196289062 209.803710938 146 180 146 c 0
 150.196289062 146 126 170.196289062 126 200 c 0
 126 229.803710938 150.196289062 254 180 254 c 1024
EndSplineSet
EndChar

StartChar: uni0081
Encoding: 129 129 62
Width: 1000
Flags: HW
LayerCount: 2
Fore
SplineSet
340 320 m 5
 160.801757812 304 80 253 80 160 c 0
 80 69 278 80 440 80 c 0
 440 0 l 0
 171 0 0.460807106423 0 0 160 c 0
 -0.0916730246808 191.830420461 6.60092040753 219.329185165 18.2568229592 240.000001583 c 1
 0 240 l 25
 0 320 l 25
 340 320 l 5
EndSplineSet
EndChar

StartChar: uni0080
Encoding: 128 128 63
Width: 1000
Flags: HW
LayerCount: 2
Fore
SplineSet
0 80 m 25
 0 0 l 25
 440 0 l 0
 440 80 l 0
 278 80 80 69 80 160 c 0
 80 253 160.801757812 304 340 320 c 1
 0 320 l 25
 0 240 l 25
 18.2568229592 240.000001583 l 1
 6.60092040753 219.329185165 -0.0916730246808 191.830420461 0 160 c 0
 0.0942158656568 127.286662261 7.29825613581 101.261839934 21.0000040683 80.5580101225 c 1
 0 80 l 25
EndSplineSet
EndChar

StartChar: uni0084
Encoding: 132 132 64
Width: 1000
Flags: HW
LayerCount: 2
Fore
SplineSet
340 320 m 1
 160.801757812 304 80 253 80 160 c 0
 80 69 278 80 440 80 c 0
 440 0 l 0
 171 0 0 -0.000663571090627 0 160 c 0
 0 210 20 319 340 320 c 1
EndSplineSet
EndChar

StartChar: Edieresis
Encoding: 203 203 65
Width: 1000
Flags: HW
LayerCount: 2
Fore
SplineSet
150 320 m 5
 375 650 l 1
 0 650 l 1
 0 730 l 25
 550 730 l 1
 260 310 l 1
 150 320 l 5
EndSplineSet
EndChar

StartChar: amacron
Encoding: 257 257 66
Width: 1000
Flags: HW
LayerCount: 2
Fore
SplineSet
180 780 m 4
 235.19140625 780 280 735.19140625 280 680 c 4
 280 624.80859375 235.19140625 580 180 580 c 4
 124.80859375 580 80 624.80859375 80 680 c 4
 80 735.19140625 124.80859375 780 180 780 c 4
180 734 m 4
 209.803710938 734 234 709.803710938 234 680 c 4
 234 650.196289062 209.803710938 626 180 626 c 4
 150.196289062 626 126 650.196289062 126 680 c 4
 126 709.803710938 150.196289062 734 180 734 c 1028
EndSplineSet
EndChar

StartChar: Abreve
Encoding: 258 258 67
Width: 1000
Flags: HW
LayerCount: 2
Fore
SplineSet
275 -80 m 0
 330.19140625 -80 375 -124.80859375 375 -180 c 0
 375 -235.19140625 330.19140625 -280 275 -280 c 0
 219.80859375 -280 175 -235.19140625 175 -180 c 0
 175 -124.80859375 219.80859375 -80 275 -80 c 0
275 -126 m 0
 304.803710938 -126 329 -150.196289062 329 -180 c 0
 329 -209.803710938 304.803710938 -234 275 -234 c 0
 245.196289062 -234 221 -209.803710938 221 -180 c 0
 221 -150.196289062 245.196289062 -126 275 -126 c 1024
EndSplineSet
EndChar

StartChar: Amacron
Encoding: 256 256 68
Width: 1000
Flags: HW
LayerCount: 2
Fore
SplineSet
340 730 m 4
 395.19140625 730 440 685.19140625 440 630 c 4
 440 574.80859375 395.19140625 530 340 530 c 4
 284.80859375 530 240 574.80859375 240 630 c 4
 240 685.19140625 284.80859375 730 340 730 c 4
340 684 m 4
 369.803710938 684 394 659.803710938 394 630 c 4
 394 600.196289062 369.803710938 576 340 576 c 4
 310.196289062 576 286 600.196289062 286 630 c 4
 286 659.803710938 310.196289062 684 340 684 c 1028
EndSplineSet
EndChar

StartChar: abreve
Encoding: 259 259 69
Width: 1000
Flags: HW
LayerCount: 2
Fore
SplineSet
275 550 m 4
 330.19140625 550 375 505.19140625 375 450 c 4
 375 394.80859375 330.19140625 350 275 350 c 4
 219.80859375 350 175 394.80859375 175 450 c 4
 175 505.19140625 219.80859375 550 275 550 c 4
275 504 m 4
 304.803710938 504 329 479.803710938 329 450 c 4
 329 420.196289062 304.803710938 396 275 396 c 4
 245.196289062 396 221 420.196289062 221 450 c 4
 221 479.803710938 245.196289062 504 275 504 c 1028
EndSplineSet
EndChar

StartChar: h
Encoding: 104 104 70
Width: 1000
Flags: H
LayerCount: 2
Fore
SplineSet
235 350 m 5
 315 350 l 5
 315 500 l 5
 235 500 l 5
 235 350 l 5
EndSplineSet
EndChar

StartChar: gbreve
Encoding: 287 287 72
Width: 1000
Flags: HW
LayerCount: 2
Fore
SplineSet
-315 -240 m 1
 -235 -240 l 1
 -235 -80 l 1
 -315 -80 l 1
 -315 -240 l 1
EndSplineSet
EndChar

StartChar: Gdotaccent
Encoding: 288 288 74
Width: 1000
Flags: HWO
LayerCount: 2
Fore
SplineSet
235 400 m 1
 315 400 l 1
 315 670 l 1
 235 670 l 1
 235 400 l 1
EndSplineSet
EndChar
